# xmcd CD database file generated by LOLA_Freedb v0.9beta0
#
# Track frame offsets:
#      150
#      21594
#      40858
#      59988
#      81006
#      101759
#      127908
#      150603
#      169450
#      188918
#      212929
#      232600
#
# Disc length: 3375 seconds
#
# Revision: 1
# Processed by: cddbd v1.5.2PL0 Copyright (c) Steve Scherf et al.
# Submitted via: LOLA_Freedb v0.9beta0
#
DISCID=a50d2d0c
DTITLE=Various Artist - Ritmo Vencedor
DYEAR=1900
DGENRE=Salsa
TTITLE0=Various Artist - Soneros de Cristo (Bobby Cruz)
TTITLE1=Various Artist - Hoy daro un paso más (Adriana Benitez)
TTITLE2=Various Artist - Más que un vencedor (Bobby Cruz)
TTITLE3=Various Artist - La niña de nadine (Bobby Cruz,Mario Marrero)
TTITLE4=Various Artist - Hoy por hoy (Bobby Cruz)
TTITLE5=Various Artist - Qué grata reunión (Lefty Pérez,Manlow Rosado)
TTITLE6=Various Artist - Los niños de mi tierra (Bobby Cruz,Mario Marrero)
TTITLE7=Various Artist - No ha sido fácil (Julio Cuevas)
TTITLE8=Various Artist - Marcelino  (Bobby Cruz,Mario Marrero)
TTITLE9=Various Artist - Dios me veia  (Mario Marrero)
TTITLE10=Various Artist - Angel Dario (Diego Galé)
TTITLE11=Various Artist - Lo estoy esperando (Bobby Cruz)
EXTD=
EXTT0=
EXTT1=
EXTT2=
EXTT3=
EXTT4=
EXTT5=
EXTT6=
EXTT7=
EXTT8=
EXTT9=
EXTT10=
EXTT11=
PLAYORDER=
